<svg width="98" height="35" viewBox="0 0 98 35" fill="none" xmlns="http://www.w3.org/2000/svg">
<rect width="98" height="35" fill="#F5F5F5"/>
<g id="&#230;&#168;&#161;&#229;&#134;&#153;">
<rect width="1440" height="6554" transform="translate(-132.955 -29.6297)" fill="white"/>
<g id="Group 7">
<g id="logo__payme-d4303a840d1b29618e9a1201e3f3ba23 1">
<g id="Group">
<path id="Vector" d="M14.8747 0.897218C14.0228 0.527833 13.1174 0.369709 12.212 0.105955H4.96966C3.95804 0.527832 3.37238 1.2666 3.31893 2.37476C3.31893 2.79664 3.21268 3.21884 3.15923 3.58822C2.41355 8.75897 1.66819 13.9297 0.975957 19.0477C0.656566 21.3693 0.283724 23.6381 0.0174549 25.9069C-0.142241 27.0675 0.815932 27.7535 1.98791 27.4369C2.83984 27.1732 3.2658 26.5925 3.4255 25.8013C3.53207 25.0625 3.63865 24.2712 3.74522 23.5324C4.01149 21.7383 4.22431 19.9445 4.49091 18.0451H8.53741C13.4899 18.0451 17.8034 14.721 19.0281 10.0253C19.9866 6.1736 18.3359 2.42725 14.8744 0.897542L14.8747 0.897218ZM15.4604 10.3943C14.4488 13.0325 11.9458 14.721 9.07027 14.721H4.91654C5.44445 10.9365 5.9947 7.15514 6.56728 3.37696C8.43149 3.42978 10.3485 3.32447 12.1589 3.64104C15.141 4.16855 16.632 7.38674 15.4604 10.3943ZM93.5284 7.65082C89.2149 6.43735 84.2627 9.60305 83.4105 14.1407C83.0352 16.3133 82.7156 18.4949 82.452 20.6833C82.026 24.2712 84.1562 27.1732 87.7774 27.8063C89.9075 28.1754 91.9842 27.7535 93.7946 26.54C94.4872 26.065 95.126 25.379 95.712 24.7459C96.0845 24.3237 95.9782 23.7434 95.6585 23.2687C95.3391 22.7937 94.8597 22.4771 94.2741 22.6356C93.8481 22.7409 93.3687 22.9521 93.0493 23.2159C91.9311 24.2184 90.5997 24.6931 89.0552 24.5878C86.9785 24.4293 85.5406 22.688 85.8069 20.6305C85.9135 19.9974 86.0201 19.3642 86.1266 18.6255H95.3391C96.5639 18.6255 97.2561 18.0451 97.4693 16.8317C97.5755 16.0929 97.7355 15.3013 97.8418 14.5629C98.2681 11.2915 96.5108 8.49522 93.5284 7.65082ZM94.3272 15.196H86.7123C86.6057 13.6131 87.6708 11.9247 89.375 11.1331C90.866 10.4471 92.5167 10.6584 93.5284 11.7137C94.5403 12.6631 94.6469 13.8241 94.3272 15.196ZM53.3765 7.91457C52.7905 7.43955 51.8855 7.49237 51.2995 8.0202C51.0332 8.28396 50.8204 8.6002 50.6607 8.91709C49.9681 10.289 49.2759 11.6606 48.5837 12.9797C47.1992 15.6707 45.8679 18.3617 44.4299 21.2108C44.1637 19.9445 43.8974 18.8364 43.6846 17.781C43.0455 14.8263 42.4598 11.8719 41.8207 8.86428C41.5544 7.75612 40.7556 7.33425 39.6906 7.75612C38.732 8.12551 38.3061 8.9171 38.5189 9.91962C39.5309 14.4041 40.4894 18.8892 41.6076 23.3212C42.0338 25.0097 41.9804 26.3816 41.0219 27.8588C40.17 29.1779 39.5309 30.6026 38.7852 32.027C38.3592 32.6073 38.3592 33.188 38.8386 33.7155C39.3177 34.1902 39.9568 34.4015 40.5959 34.0321C41.075 33.7683 41.5013 33.2933 41.7676 32.8186C45.1078 26.4625 48.4272 20.0957 51.7255 13.7185C52.418 12.3994 53.0568 11.1331 53.749 9.81399C54.0687 9.07522 53.9091 8.33645 53.3765 7.91457ZM30.744 7.49269C28.5607 7.07049 26.484 7.38706 24.6201 8.60085C23.9279 9.02273 23.2888 9.60337 22.7562 10.2365C22.2237 10.8697 22.2768 11.7137 22.7562 12.2412C23.1822 12.7691 24.0341 12.8216 24.7798 12.4525C25.0992 12.2941 25.3655 12.0303 25.6317 11.8719C26.0046 11.6081 26.3774 11.2919 26.8034 11.1331C28.0813 10.5531 29.3595 10.5003 30.5312 11.2387C31.6494 11.9247 31.5428 13.0856 31.33 14.1938V14.3519C31.33 14.7213 31.1168 14.8794 30.744 14.9851L26.91 15.7763C24.6732 16.3042 22.5965 17.1482 21.1586 19.1005C19.2947 21.5802 19.2416 26.2763 23.981 27.5425C24.6201 27.7007 25.3124 27.7535 26.0046 27.8591C29.8386 27.8063 33.0873 25.2209 33.7261 21.5274C34.2055 18.7839 34.5783 16.0404 34.9508 13.2966C35.2171 10.3946 33.5664 8.0202 30.744 7.49269ZM30.2114 21.9496C29.9452 23.2687 28.5076 24.324 27.0697 24.4293C26.5902 24.4822 26.1112 24.4822 25.6852 24.4293C24.7798 24.324 23.9279 23.9546 23.6082 23.0049C23.2357 22.0552 23.4485 21.1055 24.1942 20.3667C24.6201 19.9445 25.1527 19.4699 25.7383 19.3114C27.3891 18.7839 29.0932 18.4145 30.9037 17.9398C30.6374 19.3642 30.4777 20.6833 30.2114 21.9496ZM73.7185 7.28143C71.6415 7.28143 69.9377 8.07302 68.3932 9.4446C67.5412 8.38959 66.4762 7.70363 65.1983 7.43988C61.3108 6.64829 57.1036 9.3393 56.4114 13.3491C55.666 17.5173 55.1866 21.6855 54.601 25.8541C54.4413 26.9091 55.3463 27.6479 56.4114 27.4369C57.3699 27.2257 57.8493 26.5925 58.009 25.3262C58.4884 21.7912 58.9675 18.3089 59.4469 14.7738C59.6066 13.6131 59.8198 12.505 60.7248 11.6081C61.7899 10.6056 63.3344 10.289 64.5057 10.8165C65.6242 11.3443 66.2099 12.4522 66.0502 13.7713C65.8371 15.5651 65.5708 17.3064 65.3045 19.0477C64.9851 21.3165 64.6657 23.5324 64.3995 25.8013C64.346 26.3816 64.4526 26.9091 64.9851 27.2257C65.5708 27.5422 66.1568 27.4894 66.7424 27.2257C67.3281 26.9091 67.6478 26.3816 67.7541 25.7484C67.8606 25.0625 67.9672 24.3237 68.0738 23.6378C68.5529 20.3667 68.9792 17.0954 69.4582 13.8241C69.7245 12.2412 70.683 11.1859 72.2275 10.7637C74.3042 10.1837 76.1146 11.6609 75.8484 13.8241C75.3162 17.7814 74.7836 21.7911 74.2511 25.7484C74.0911 27.1203 75.0499 27.8588 76.3278 27.3841C77.1266 27.1203 77.4994 26.4872 77.606 25.6956C78.1917 21.633 78.7773 17.5173 79.3099 13.4547C79.6827 10.0253 77.1266 7.33425 73.7185 7.28143ZM86.3394 3.0079L86.5523 2.05819C85.4872 1.74162 84.2093 1.58317 83.3574 1.58317L83.1973 2.48007C83.5171 2.48007 83.9961 2.53288 84.8484 2.69133C85.7003 2.79664 86.0732 2.90227 86.3394 3.0079ZM86.9251 0.527833C85.5406 0.158447 84.1558 0.105632 83.4105 0.0531401L83.1973 1.00253C84.4755 1.10816 85.4872 1.21379 86.712 1.58317L86.9251 0.527833ZM96.2442 1.84693H91.7179V2.90194H96.2442V1.84693ZM76.7534 4.59042V1.95256C77.7122 1.2666 78.0848 0.844403 78.2979 0.633788L77.3925 0.000323844C76.3275 1.21411 75.2624 1.84725 73.6116 2.42725L74.0911 3.32479C74.3573 3.21884 74.8899 3.11353 75.6352 2.69133V4.64356H76.7534V4.59042ZM69.4582 3.27133C68.766 2.53256 68.6594 2.37444 67.5412 1.10816C67.1153 0.580649 66.849 0.475017 66.6359 0.475017C66.2633 0.475017 66.0502 0.686279 65.358 1.53036C65.0386 1.95256 64.7723 2.21631 64.6657 2.37444L65.4111 3.32415C65.4645 3.27165 65.5711 3.16602 65.6242 3.00758C65.7308 2.90227 66.1033 2.32194 66.2099 2.1635C66.4762 1.79411 66.4762 1.7413 66.5827 1.7413C66.6359 1.7413 66.6893 1.7413 66.9556 2.05787C67.5412 2.79664 68.1804 3.58822 68.8195 4.32667L69.6183 3.37728C69.5648 3.42978 69.5117 3.32382 69.4582 3.27133ZM68.7129 1.16097C69.0323 1.16097 69.2985 0.897218 69.2985 0.580648C69.2985 0.264078 69.0323 0 68.7129 0C68.3935 0 68.1272 0.264078 68.1272 0.580648C68.0738 0.844402 68.34 1.16097 68.7129 1.16097ZM68.7129 0.316894C68.8195 0.316894 68.926 0.422202 68.926 0.527509C68.926 0.632816 68.8195 0.738772 68.7129 0.738772C68.6063 0.738772 68.4997 0.63314 68.4997 0.527833C68.4466 0.422202 68.5532 0.316894 68.7129 0.316894ZM87.0848 3.64104C85.6469 3.27165 84.5287 3.16635 83.0908 3.11353L82.9311 4.06292C84.369 4.11606 85.5406 4.27418 86.7654 4.64356L87.0848 3.64104Z" fill="black"/>
</g>
</g>
</g>
</g>
</svg>
